<svg xmlns="http://www.w3.org/2000/svg" viewBox="0 0 864 466" width="864" height="466" font-family="ui-monospace,SFMono-Regular,Menlo,Consolas,monospace" font-size="13">
<title>gitmaster_flash overview — problem repos sorted to the top</title>
<rect width="864" height="466" rx="8" fill="#1c1c1c"/>
<text x="12.0" y="25.0" fill="#d8d8d8" font-weight="bold" xml:space="preserve"> gitmaster_flash 0.7.0 · ~/git · 9 repos · 7 to review                          </text>
<rect x="12.0" y="29.0" width="16.8" height="17.0" fill="#d8d8d8"/>
<text x="12.0" y="42.0" fill="#1c1c1c" xml:space="preserve">▶ </text>
<rect x="28.8" y="29.0" width="92.4" height="17.0" fill="#d8d8d8"/>
<text x="28.8" y="42.0" fill="#1c1c1c" font-weight="bold" xml:space="preserve">api-gateway</text>
<rect x="138.0" y="29.0" width="25.2" height="17.0" fill="#e06c75"/>
<text x="138.0" y="42.0" fill="#1c1c1c" xml:space="preserve">M:1</text>
<rect x="171.6" y="29.0" width="25.2" height="17.0" fill="#e06c75"/>
<text x="171.6" y="42.0" fill="#1c1c1c" xml:space="preserve">U:2</text>
<rect x="205.2" y="29.0" width="50.4" height="17.0" fill="#d8d8d8"/>
<text x="205.2" y="42.0" fill="#1c1c1c" xml:space="preserve">[main]</text>
<rect x="264.0" y="29.0" width="50.4" height="17.0" fill="#98c379"/>
<text x="264.0" y="42.0" fill="#1c1c1c" xml:space="preserve">origin</text>
<text x="12.0" y="59.0" fill="#d8d8d8" xml:space="preserve">▶ </text>
<text x="28.8" y="59.0" fill="#d8d8d8" font-weight="bold" xml:space="preserve">dotfiles</text>
<text x="112.8" y="59.0" fill="#e06c75" xml:space="preserve">U:3</text>
<text x="138.0" y="59.0" fill="#d8d8d8" xml:space="preserve"> [main] </text>
<text x="205.2" y="59.0" fill="#98c379" xml:space="preserve">origin</text>
<text x="12.0" y="76.0" fill="#d8d8d8" xml:space="preserve">▶ </text>
<text x="28.8" y="76.0" fill="#d8d8d8" font-weight="bold" xml:space="preserve">game-jam</text>
<text x="112.8" y="76.0" fill="#e5c07b" xml:space="preserve">⚑Stash:1</text>
<text x="180.0" y="76.0" fill="#d8d8d8" xml:space="preserve"> [main] </text>
<text x="247.2" y="76.0" fill="#98c379" xml:space="preserve">origin</text>
<text x="12.0" y="93.0" fill="#d8d8d8" xml:space="preserve">▶ </text>
<text x="28.8" y="93.0" fill="#d8d8d8" font-weight="bold" xml:space="preserve">ml-experiments</text>
<text x="163.2" y="93.0" fill="#e06c75" xml:space="preserve">⚠conflict:2</text>
<text x="264.0" y="93.0" fill="#e5c07b" xml:space="preserve">⚑Stash:1</text>
<text x="331.2" y="93.0" fill="#d8d8d8" xml:space="preserve"> [main] </text>
<text x="398.4" y="93.0" fill="#98c379" xml:space="preserve">origin</text>
<text x="12.0" y="110.0" fill="#d8d8d8" xml:space="preserve">▶ </text>
<text x="28.8" y="110.0" fill="#d8d8d8" font-weight="bold" xml:space="preserve">blog-astro</text>
<text x="112.8" y="110.0" fill="#d8d8d8" xml:space="preserve">  [main] </text>
<text x="188.4" y="110.0" fill="#e5c07b" xml:space="preserve">↑2 origin</text>
<text x="12.0" y="127.0" fill="#d8d8d8" xml:space="preserve">▶ </text>
<text x="28.8" y="127.0" fill="#d8d8d8" font-weight="bold" xml:space="preserve">invoice-parser</text>
<text x="146.4" y="127.0" fill="#d8d8d8" xml:space="preserve">  [main] </text>
<text x="222.0" y="127.0" fill="#e06c75" xml:space="preserve">↓1 origin</text>
<text x="12.0" y="144.0" fill="#d8d8d8" xml:space="preserve">▶ </text>
<text x="28.8" y="144.0" fill="#d8d8d8" font-weight="bold" xml:space="preserve">scratchpad</text>
<text x="129.6" y="144.0" fill="#e5c07b" xml:space="preserve">no sync remote</text>
<text x="247.2" y="144.0" fill="#d8d8d8" xml:space="preserve"> [main]                                                                 </text>
<text x="12.0" y="161.0" fill="#d8d8d8" xml:space="preserve">▶ </text>
<text x="28.8" y="161.0" fill="#d8d8d8" font-weight="bold" xml:space="preserve">notes-vault</text>
<text x="138.0" y="161.0" fill="#98c379" xml:space="preserve">✔ clean &amp; synced</text>
<text x="272.4" y="161.0" fill="#d8d8d8" xml:space="preserve"> [main] </text>
<text x="339.6" y="161.0" fill="#98c379" xml:space="preserve">origin</text>
<rect x="12.0" y="165.0" width="831.6" height="17.0" fill="#d8d8d8"/>
<text x="12.0" y="178.0" fill="#1c1c1c" xml:space="preserve"> ↑/↓ select · → expand · ← collapse · ⏎ cd &amp; quit · P sync push · L sync pull                      </text>
<rect x="12.0" y="182.0" width="831.6" height="17.0" fill="#d8d8d8"/>
<text x="12.0" y="195.0" fill="#1c1c1c" xml:space="preserve"> E Editor · C commit · U stash pop · R fetch all · G GitHub push                                   </text>
<rect x="12.0" y="199.0" width="831.6" height="17.0" fill="#d8d8d8"/>
<text x="12.0" y="212.0" fill="#1c1c1c" xml:space="preserve"> Q quit · S stash preview · D stash drop · H Git help                                              </text>
</svg>
